<svg version="1.0" xmlns="http://www.w3.org/2000/svg" width="24.000000pt" height="24.000000pt" viewBox="0 0 512.000000 512.000000" preserveAspectRatio="xMidYMid meet"><g transform="translate(0.000000,512.000000) scale(0.100000,-0.100000)" fill="#000000" stroke="none"><path d="M0 2560 l0 -2560 2560 0 2560 0 0 2560 0 2560 -2560 0 -2560 0 0 -2560z m1151 1200 c50 -26 85 -91 75 -141 -20 -108 -132 -163 -217 -106 -94 63 -88 199 12 249 45 23 81 23 130 -2z m1391 -97 c68 -64 125 -121 127 -127 2 -5 -13 -78 -35 -162 -32 -129 -36 -154 -25 -168 31 -37 15 -48 620 411 l214 163 508 0 c448 0 509 -2 523 -16 33 -32 14 -74 -59 -131 -54 -43 -540 -427 -1028 -813 -178 -140 -313 -254 -318 -267 -6 -16 -5 -32 3 -46 6 -12 188 -257 405 -544 216 -287 393 -531 393 -542 0 -11 -12 -33 -26 -50 l-26 -31 -381 2 -381 3 -123 160 c-98 127 -123 165 -120 185 2 14 25 104 51 200 112 422 134 513 129 526 -8 22 -41 36 -66 28 -12 -4 -49 -28 -82 -54 -33 -26 -177 -139 -320 -251 -143 -113 -345 -272 -450 -354 -104 -82 -264 -208 -355 -280 -91 -72 -176 -138 -190 -148 -22 -15 -64 -17 -440 -17 -338 0 -420 3 -435 14 -17 12 -18 19 -7 72 6 33 25 108 41 168 22 84 36 115 58 136 15 15 206 166 423 337 217 170 489 383 603 473 220 172 250 205 231 255 -5 14 -76 111 -159 217 -264 338 -495 660 -495 689 0 18 10 36 31 53 l31 26 503 0 504 0 123 -117z"></path><path d="M1052 3759 c-131 -27 -125 -225 7 -254 43 -9 115 25 135 64 55 105 -27 214 -142 190z m79 -49 c21 -12 27 -64 8 -76 -10 -6 -7 -30 7 -68 12 -32 -17 -15 -33 19 -13 28 -23 35 -45 35 -25 0 -28 -3 -28 -35 0 -19 -4 -35 -10 -35 -6 0 -10 35 -10 85 l0 85 46 0 c25 0 54 -5 65 -10z"></path><path d="M1040 3670 c0 -28 2 -30 40 -30 27 0 43 5 46 15 10 24 -15 45 -52 45 -31 0 -34 -3 -34 -30z"></path></g></svg>